<svg xmlns="http://www.w3.org/2000/svg" viewBox="0 0 400 600"><title>AliGoal World Cup Icons pack artwork</title><defs><linearGradient id="bg" x2="1" y2="1"><stop stop-color="#071a5b"/><stop offset=".48" stop-color="#c51f4b"/><stop offset="1" stop-color="#087f87"/></linearGradient><pattern id="hex" width="72" height="62" patternUnits="userSpaceOnUse"><path d="M18 2h36l18 30-18 30H18L0 32z" fill="none" stroke="#fff" stroke-width="2" opacity=".28"/></pattern><radialGradient id="glow"><stop stop-color="#ffd85b" stop-opacity=".9"/><stop offset="1" stop-color="#ffd85b" stop-opacity="0"/></radialGradient></defs><rect width="400" height="600" rx="32" fill="url(#bg)"/><rect x="25" y="25" width="350" height="550" rx="18" fill="url(#hex)"/><circle cx="205" cy="188" r="145" fill="url(#glow)" opacity=".5"/><path d="M-30 310L430 80v78L-30 388zM-30 500L430 270v28L-30 528z" fill="#071a5b" opacity=".56"/><g fill="none" stroke="#fff"><circle cx="200" cy="205" r="106" stroke-width="4" opacity=".8"/><path d="M200 98c34 32 52 67 52 107s-18 75-52 107c-34-32-52-67-52-107s18-75 52-107z" stroke-width="2" opacity=".65"/><path d="M96 205h208M120 157h160M120 253h160" opacity=".6"/></g><circle cx="200" cy="205" r="24" fill="#fff" opacity=".9"/><rect x="14" y="14" width="372" height="572" rx="23" fill="none" stroke="#ffd85b" stroke-width="3"/><rect x="25" y="25" width="350" height="550" rx="17" fill="none" stroke="#fff" opacity=".5"/><text x="200" y="388" text-anchor="middle" fill="#fff" font-family="sans-serif" font-size="34" font-weight="900" letter-spacing="8">AliGoal</text><text x="200" y="425" text-anchor="middle" fill="#ffd85b" font-family="sans-serif" font-size="19" font-weight="800" letter-spacing="3">WORLD CUP ICONS</text><path d="M92 452h216" stroke="#ffd85b" opacity=".85"/><text x="200" y="486" text-anchor="middle" fill="#fff" opacity=".82" font-family="sans-serif" font-size="11" font-weight="700" letter-spacing="4">THE BIGGEST STAGE</text><text x="200" y="535" text-anchor="middle" fill="#fff" opacity=".55" font-family="sans-serif" font-size="9" letter-spacing="3">06 / MATCHDAY SERIES</text></svg>